<svg width="241" height="71" viewBox="0 0 241 71" fill="none" xmlns="http://www.w3.org/2000/svg">
<g clip-path="url(#clip0_1_16)">
<path d="M241.315 51.1887C241.315 40.3224 232.506 31.5135 221.639 31.5135H206.863C204.158 31.5135 201.964 33.7068 201.964 36.4124V51.1886C201.964 62.0549 210.773 70.8638 221.639 70.8638C232.506 70.8638 241.315 62.0549 241.315 51.1887Z" fill="#AB54DB"/>
<path d="M174.315 43C174.315 36.9249 179.239 32 185.315 32H193.576C195.088 32 196.315 33.2262 196.315 34.7389V43C196.315 49.0751 191.39 54 185.315 54C179.239 54 174.315 49.0751 174.315 43Z" fill="#B7DBF9"/>
<path d="M195.513 12.2567C195.513 5.4875 190.026 0 183.257 0C176.488 0 171 5.48749 171 12.2567C171 19.0258 176.488 24.5133 183.257 24.5133H190.614C193.32 24.5133 195.513 22.32 195.513 19.6144V12.2567Z" fill="#EF9A91"/>
<path d="M202.315 16.5C202.315 11.8056 206.12 8 210.815 8C215.509 8 219.315 11.8056 219.315 16.5C219.315 21.1944 215.509 25 210.815 25H205.712C203.836 25 202.315 23.4789 202.315 21.6026V16.5Z" fill="#F1E6B9"/>
<path d="M56.7778 34.6C55.3698 34.6 54.0578 34.248 52.8418 33.544C51.6471 32.84 50.6978 31.8907 49.9938 30.696C49.2898 29.5013 48.9378 28.1893 48.9378 26.76V16.712H53.6738V26.12C53.6738 26.9307 53.9511 27.624 54.5058 28.2C55.0818 28.776 55.7751 29.064 56.5858 29.064H62.5058C63.1458 29.064 63.6898 28.84 64.1378 28.392C64.6071 27.9227 64.8418 27.368 64.8418 26.728V16.168H69.5458V22.6C69.5458 22.8347 69.6311 23.0373 69.8018 23.208C69.9938 23.3573 70.1751 23.432 70.3458 23.432H71.5618C71.8178 23.432 72.0418 23.3573 72.2338 23.208C72.4258 23.0587 72.5431 22.856 72.5858 22.6L73.8978 16.136L78.6018 17L77.5458 22.408C77.5031 22.472 77.4818 22.5787 77.4818 22.728C77.4818 22.9413 77.5564 23.1227 77.7058 23.272C77.8764 23.4213 78.0684 23.496 78.2818 23.496H79.8178C80.0524 23.496 80.2444 23.4213 80.3938 23.272C80.5644 23.1013 80.6497 22.8987 80.6497 22.664V15.368H85.3858V22.504C85.3858 22.8027 85.4604 23.0373 85.6098 23.208C85.7591 23.3787 85.9618 23.464 86.2178 23.464H87.5938C87.8924 23.464 88.0418 23.6133 88.0418 23.912V28.552C88.0418 28.8507 87.8924 29 87.5938 29H87.0178C86.2071 29 85.4711 28.872 84.8098 28.616C84.1484 28.36 83.5404 27.9333 82.9858 27.336C82.4524 27.912 81.8124 28.3387 81.0658 28.616C80.3191 28.8933 79.5404 29.032 78.7298 29.032C77.9831 29.032 77.2578 28.904 76.5538 28.648C75.8711 28.3707 75.2951 27.9333 74.8258 27.336C74.3138 27.9547 73.7804 28.392 73.2258 28.648C72.6924 28.8827 72.0738 29 71.3698 29C70.9858 29 70.6338 28.9573 70.3138 28.872C70.0151 28.7867 69.7484 28.6053 69.5138 28.328V28.616C69.5138 29.704 69.1724 30.7067 68.4898 31.624C67.8284 32.5413 66.9538 33.2667 65.8658 33.8C64.7778 34.3333 63.6364 34.6 62.4418 34.6H56.7778ZM87.5938 29C87.4871 29 87.3911 28.9467 87.3057 28.84C87.1991 28.7333 87.1457 28.6267 87.1457 28.52V23.912C87.1457 23.8053 87.1991 23.7093 87.3057 23.624C87.3911 23.5173 87.4871 23.464 87.5938 23.464H92.1058C92.7458 23.464 93.2791 23.208 93.7058 22.696C94.1538 22.184 94.3778 21.6293 94.3778 21.032C94.3778 20.6693 94.2924 20.3707 94.1218 20.136L88.3938 12.424V9.352L100.138 3.496L102.186 7.56L93.2578 12.008L97.5458 17.448C98.5058 18.664 98.9858 20.04 98.9858 21.576C98.9858 22.8347 98.6764 24.04 98.0578 25.192C97.4391 26.3227 96.5751 27.24 95.4658 27.944C94.3564 28.648 93.1084 29 91.7218 29H87.5938ZM103.882 29C103.028 29 102.324 28.8827 101.77 28.648C101.215 28.4133 100.65 27.9333 100.074 27.208L94.3458 20.136L97.5458 17.448L101.674 22.6C101.972 22.9627 102.26 23.1973 102.538 23.304C102.836 23.4107 103.199 23.464 103.626 23.464H104.01C104.138 23.464 104.244 23.5067 104.33 23.592C104.415 23.656 104.458 23.752 104.458 23.88V28.52C104.458 28.6267 104.404 28.7333 104.298 28.84C104.191 28.9467 104.074 29 103.946 29H103.882ZM104 29C103.893 29 103.797 28.9573 103.712 28.872C103.605 28.7867 103.552 28.68 103.552 28.552V23.944C103.552 23.816 103.605 23.7093 103.712 23.624C103.797 23.5173 103.893 23.464 104 23.464H107.392C107.648 23.464 107.872 23.3893 108.064 23.24C108.256 23.0693 108.384 22.8453 108.448 22.568L109.792 16.136L114.4 17L113.344 22.408C113.323 22.472 113.312 22.5573 113.312 22.664C113.312 22.8987 113.376 23.0907 113.504 23.24C113.653 23.3893 113.845 23.464 114.08 23.464H116.896C117.024 23.464 117.131 23.5173 117.216 23.624C117.301 23.7093 117.344 23.816 117.344 23.944V28.552C117.344 28.6587 117.301 28.7653 117.216 28.872C117.131 28.9573 117.024 29 116.896 29H114.048C113.365 29 112.715 28.8613 112.096 28.584C111.499 28.2853 111.008 27.8693 110.624 27.336C110.219 27.848 109.664 28.2533 108.96 28.552C108.256 28.8507 107.573 29 106.912 29H104ZM110.592 32.84H115.136V37.384H110.592V32.84ZM106.048 32.84H110.592V37.384H106.048V32.84ZM116.906 23.464H122.378C122.677 23.464 122.826 23.6133 122.826 23.912V28.552C122.826 28.8507 122.677 29 122.378 29H116.906V23.464ZM122.375 23.464H127.847C128.146 23.464 128.295 23.6133 128.295 23.912V28.552C128.295 28.8507 128.146 29 127.847 29H122.375V23.464ZM127.844 23.464H133.316C133.614 23.464 133.764 23.6133 133.764 23.912V28.552C133.764 28.8507 133.614 29 133.316 29H127.844V23.464ZM133.312 23.464H138.785C139.083 23.464 139.233 23.6133 139.233 23.912V28.552C139.233 28.8507 139.083 29 138.785 29H133.312V23.464ZM138.781 29C138.483 29 138.333 28.8507 138.333 28.552V23.944C138.333 23.8373 138.387 23.7307 138.493 23.624C138.579 23.5173 138.675 23.464 138.781 23.464H145.149C146.088 23.464 146.952 23.336 147.741 23.08C148.552 22.824 149.16 22.3867 149.565 21.768L150.333 20.584C150.547 20.264 150.696 20.0613 150.781 19.976L144.797 18.216C144.691 18.1733 144.616 18.2053 144.573 18.312L143.197 21.928L139.165 20.84L140.093 17.576C140.435 16.3813 141.075 15.4533 142.013 14.792C142.973 14.1093 144.019 13.768 145.149 13.768C145.704 13.768 146.216 13.8427 146.685 13.992L159.677 17.896L158.365 22.216L156.509 21.672C156.232 21.5867 155.976 21.544 155.741 21.544C155.571 21.544 155.421 21.5867 155.293 21.672C155.165 21.736 155.016 21.864 154.845 22.056L151.357 26.088C150.483 27.0907 149.384 27.8267 148.061 28.296C146.76 28.7653 145.341 29 143.805 29H138.781ZM147.549 32.808H152.093L152.157 37.416H147.549V32.808Z" fill="black"/>
<path d="M25.4111 50.488V54.52C25.4111 54.904 25.5071 55.256 25.6991 55.576C25.8911 55.9067 26.1471 56.168 26.4671 56.36C26.7978 56.552 27.1551 56.648 27.5391 56.648H30.3231C30.8245 56.648 31.2511 56.4667 31.6031 56.104C31.9658 55.7413 32.1471 55.3093 32.1471 54.808V50.232H33.1231V54.968C33.1231 55.48 32.9951 55.9493 32.7391 56.376C32.4831 56.8133 32.1365 57.1547 31.6991 57.4C31.2725 57.656 30.8031 57.784 30.2911 57.784H27.5711C27.0058 57.784 26.4831 57.6453 26.0031 57.368C25.5231 57.0907 25.1391 56.712 24.8511 56.232C24.5738 55.752 24.4351 55.224 24.4351 54.648V50.488H25.4111ZM28.1631 48.968H29.4111L29.3951 50.216H28.1631V48.968ZM33.722 58.008L34.618 57.544C34.9273 57.384 35.178 57.2187 35.37 57.048C35.562 56.888 35.7113 56.6533 35.818 56.344C35.9353 56.0347 35.994 55.6293 35.994 55.128V50.232H36.97V55.032C36.97 55.9493 36.8207 56.648 36.522 57.128C36.2233 57.608 35.7593 58.0133 35.13 58.344L34.17 58.856L33.722 58.008ZM47.4831 53.864C47.5471 53.864 47.6005 53.8907 47.6431 53.944C47.6858 53.9867 47.7071 54.04 47.7071 54.104V54.776C47.7071 54.9253 47.6325 55 47.4831 55H47.1791C46.7738 55 46.3951 54.8827 46.0431 54.648C45.7018 54.4027 45.4351 54.056 45.2431 53.608C45.0938 54.0453 44.8378 54.3867 44.4751 54.632C44.1125 54.8773 43.7178 55 43.2911 55H41.0831C40.6351 55 40.2511 54.84 39.9311 54.52C39.6111 54.1893 39.4511 53.8 39.4511 53.352V51.736H40.2671V53.096C40.2671 53.32 40.3258 53.5067 40.4431 53.656C40.5711 53.7947 40.7471 53.864 40.9711 53.864H43.3071C43.7018 53.864 44.0325 53.7253 44.2991 53.448C44.5765 53.16 44.7151 52.824 44.7151 52.44C44.7151 52.312 44.6991 52.1947 44.6671 52.088L43.4991 47.864L44.4271 47.56L45.8351 52.616C46.0485 53.448 46.4805 53.864 47.1311 53.864H47.4831ZM47.4844 55C47.335 55 47.2604 54.9253 47.2604 54.776V54.088C47.2604 54.0347 47.2817 53.9867 47.3244 53.944C47.367 53.8907 47.4204 53.864 47.4844 53.864H47.9964C48.327 53.864 48.6097 53.7733 48.8444 53.592C49.079 53.4 49.2337 53.1333 49.3084 52.792L49.6604 51.144C49.7564 50.664 49.9857 50.2693 50.3484 49.96C50.7217 49.6507 51.1484 49.496 51.6284 49.496H52.5244C52.9084 49.496 53.2657 49.592 53.5964 49.784C53.927 49.976 54.1884 50.2373 54.3804 50.568C54.5724 50.888 54.6684 51.24 54.6684 51.624V53.672C54.6684 54.0773 54.551 54.4027 54.3164 54.648C54.0817 54.8827 53.751 55 53.3244 55H51.3564C50.9937 55 50.6684 54.9147 50.3804 54.744C50.103 54.5627 49.8897 54.2853 49.7404 53.912C49.5697 54.2747 49.3244 54.5467 49.0044 54.728C48.6844 54.9093 48.3377 55 47.9644 55H47.4844ZM53.7244 53.864V51.64C53.7244 51.3307 53.6124 51.0693 53.3884 50.856C53.175 50.6427 52.9137 50.536 52.6044 50.536H51.6284C51.3617 50.536 51.127 50.6213 50.9244 50.792C50.7217 50.952 50.5937 51.16 50.5404 51.416L50.3004 52.712C50.2897 52.7547 50.2844 52.8133 50.2844 52.888C50.2844 53.1547 50.375 53.384 50.5564 53.576C50.7484 53.768 50.9777 53.864 51.2444 53.864H53.7244ZM67.8095 55C67.8842 55.224 67.9215 55.4533 67.9215 55.688V56.248C67.9215 56.7173 67.7935 57.144 67.5375 57.528C67.2815 57.912 66.9402 58.2107 66.5135 58.424C66.0975 58.648 65.6442 58.76 65.1535 58.76H62.3055C61.7402 58.76 61.2175 58.6213 60.7375 58.344C60.2575 58.0667 59.8735 57.688 59.5855 57.208C59.3082 56.728 59.1695 56.2053 59.1695 55.64V51.896H60.1295V55.496C60.1295 55.88 60.2255 56.232 60.4175 56.552C60.6095 56.8827 60.8655 57.144 61.1855 57.336C61.5162 57.528 61.8788 57.624 62.2735 57.624H65.3935C65.8628 57.624 66.2415 57.4587 66.5295 57.128C66.8282 56.808 66.9775 56.408 66.9775 55.928V55H63.9375V53.864H69.6975C69.7508 53.864 69.7988 53.8907 69.8415 53.944C69.8948 53.9867 69.9215 54.0347 69.9215 54.088V54.76C69.9215 54.824 69.8948 54.8827 69.8415 54.936C69.7988 54.9787 69.7508 55 69.6975 55H67.8095ZM69.7031 55C69.5538 55 69.4791 54.9253 69.4791 54.776V54.104C69.4791 54.04 69.5005 53.9867 69.5431 53.944C69.5858 53.8907 69.6391 53.864 69.7031 53.864H70.6631C71.0578 53.864 71.3618 53.768 71.5751 53.576C71.7885 53.384 71.9271 53.1227 71.9911 52.792L72.4871 50.312L73.4311 50.488L73.0311 52.536C73.0098 52.6427 72.9991 52.7227 72.9991 52.776C72.9991 53.0853 73.1111 53.3467 73.3351 53.56C73.5591 53.7627 73.8471 53.864 74.1991 53.864H75.1271C75.1911 53.864 75.2445 53.8907 75.2871 53.944C75.3298 53.9867 75.3511 54.04 75.3511 54.104V54.776C75.3511 54.9253 75.2765 55 75.1271 55H74.1831C73.7778 55 73.4205 54.9093 73.1111 54.728C72.8125 54.5467 72.5991 54.2747 72.4711 53.912C72.3218 54.2427 72.0765 54.5093 71.7351 54.712C71.3938 54.904 71.0311 55 70.6471 55H69.7031ZM72.9671 47.096H74.2151V48.344H72.9671V47.096ZM70.8871 47.096H72.1351V48.344H70.8871V47.096ZM75.125 55C74.9757 55 74.901 54.9253 74.901 54.776V54.104C74.901 54.04 74.9223 53.9867 74.965 53.944C75.0077 53.8907 75.061 53.864 75.125 53.864H79.205C79.5463 53.864 79.8343 53.7467 80.069 53.512C80.3143 53.2667 80.437 52.9733 80.437 52.632V49.784H81.397V52.648C81.397 53.064 81.2903 53.4533 81.077 53.816C80.8743 54.1787 80.5917 54.4667 80.229 54.68C79.8663 54.8933 79.4717 55 79.045 55H75.125ZM78.309 56.92H79.557V58.168H78.309V56.92ZM76.229 56.92H77.477V58.168H76.229V56.92ZM81.7064 58.008L82.6024 57.544C82.9117 57.384 83.1624 57.2187 83.3544 57.048C83.5464 56.888 83.6957 56.6533 83.8024 56.344C83.9197 56.0347 83.9784 55.6293 83.9784 55.128V50.232H84.9544V52.664C84.9544 52.9947 85.077 53.2773 85.3224 53.512C85.5784 53.7467 85.877 53.864 86.2184 53.864H86.7464C86.8317 53.864 86.8904 53.88 86.9224 53.912C86.9544 53.944 86.9704 54.0027 86.9704 54.088V54.776C86.9704 54.8613 86.9544 54.92 86.9224 54.952C86.8904 54.984 86.8317 55 86.7464 55H86.3624C86.085 55 85.8184 54.9413 85.5624 54.824C85.3064 54.7067 85.0984 54.536 84.9384 54.312V55.176C84.9384 56.0507 84.789 56.712 84.4904 57.16C84.1917 57.6187 83.733 58.0133 83.1144 58.344L82.1544 58.856L81.7064 58.008ZM86.75 55C86.6007 55 86.526 54.9253 86.526 54.776V54.104C86.526 54.04 86.5473 53.9867 86.59 53.944C86.6327 53.8907 86.686 53.864 86.75 53.864H88.542C88.8833 53.864 89.1767 53.7413 89.422 53.496C89.6673 53.2507 89.79 52.9627 89.79 52.632V49.784H90.734V52.648C90.734 53.0747 90.6273 53.4693 90.414 53.832C90.2113 54.184 89.9287 54.4667 89.566 54.68C89.2033 54.8933 88.8087 55 88.382 55H86.75ZM89.182 56.92H90.43V58.168H89.182V56.92ZM87.102 56.92H88.35V58.168H87.102V56.92ZM101.061 53.864C101.125 53.864 101.179 53.8907 101.221 53.944C101.264 53.9867 101.285 54.04 101.285 54.104V54.776C101.285 54.9253 101.211 55 101.061 55H100.757C100.352 55 99.9733 54.8827 99.6213 54.648C99.2799 54.4027 99.0133 54.056 98.8213 53.608C98.6719 54.0453 98.4159 54.3867 98.0533 54.632C97.6906 54.8773 97.2959 55 96.8693 55H94.6613C94.2133 55 93.8293 54.84 93.5093 54.52C93.1893 54.1893 93.0293 53.8 93.0293 53.352V51.736H93.8453V53.096C93.8453 53.32 93.9039 53.5067 94.0213 53.656C94.1493 53.7947 94.3253 53.864 94.5493 53.864H96.8853C97.2799 53.864 97.6106 53.7253 97.8773 53.448C98.1546 53.16 98.2933 52.824 98.2933 52.44C98.2933 52.312 98.2773 52.1947 98.2453 52.088L97.0773 47.864L98.0053 47.56L99.4133 52.616C99.6266 53.448 100.059 53.864 100.709 53.864H101.061ZM101.062 55C100.913 55 100.838 54.9253 100.838 54.776V54.088C100.838 54.0347 100.86 53.9867 100.902 53.944C100.945 53.8907 100.998 53.864 101.062 53.864H101.575C101.905 53.864 102.188 53.7733 102.423 53.592C102.657 53.4 102.812 53.1333 102.887 52.792L103.239 51.144C103.335 50.664 103.564 50.2693 103.927 49.96C104.3 49.6507 104.727 49.496 105.207 49.496H106.103C106.487 49.496 106.844 49.592 107.175 49.784C107.505 49.976 107.767 50.2373 107.959 50.568C108.151 50.888 108.247 51.24 108.247 51.624V53.672C108.247 54.0773 108.129 54.4027 107.895 54.648C107.66 54.8827 107.329 55 106.903 55H104.935C104.572 55 104.247 54.9147 103.959 54.744C103.681 54.5627 103.468 54.2853 103.319 53.912C103.148 54.2747 102.903 54.5467 102.583 54.728C102.263 54.9093 101.916 55 101.543 55H101.062ZM107.303 53.864V51.64C107.303 51.3307 107.191 51.0693 106.967 50.856C106.753 50.6427 106.492 50.536 106.183 50.536H105.207C104.94 50.536 104.705 50.6213 104.503 50.792C104.3 50.952 104.172 51.16 104.119 51.416L103.879 52.712C103.868 52.7547 103.863 52.8133 103.863 52.888C103.863 53.1547 103.953 53.384 104.135 53.576C104.327 53.768 104.556 53.864 104.823 53.864H107.303ZM114.412 55C113.964 55 113.574 54.84 113.244 54.52C112.924 54.1893 112.764 53.8 112.764 53.352V51.736H113.596V53.128C113.596 53.3413 113.654 53.5173 113.772 53.656C113.889 53.7947 114.06 53.864 114.284 53.864H116.764C117.212 53.864 117.553 53.7307 117.788 53.464C118.033 53.1973 118.156 52.872 118.156 52.488C118.156 52.1787 118.086 51.9013 117.948 51.656L116.204 48.536L117.02 48.04L118.78 51.16C119.046 51.6293 119.18 52.1093 119.18 52.6C119.18 53.0373 119.073 53.4427 118.86 53.816C118.657 54.1787 118.364 54.4667 117.98 54.68C117.606 54.8933 117.18 55 116.7 55H114.412ZM117.969 58.008L119.729 57.416C120.849 57.0533 121.409 56.312 121.409 55.192V50.232H122.369V55.128C122.369 55.928 122.161 56.5947 121.745 57.128C121.329 57.672 120.759 58.0667 120.033 58.312L118.257 58.92L117.969 58.008ZM131.338 53.864C131.402 53.864 131.455 53.8907 131.498 53.944C131.54 53.9867 131.562 54.0347 131.562 54.088V54.776C131.562 54.9253 131.487 55 131.338 55H129.818L129.834 53.864H131.338ZM129.066 54.856C128.82 54.952 128.468 55 128.01 55H126.73C126.356 55 126.015 54.9093 125.706 54.728C125.396 54.5467 125.151 54.3013 124.97 53.992C124.799 53.672 124.714 53.3307 124.714 52.968C124.714 52.8933 124.724 52.7707 124.746 52.6L125.002 51.192C125.087 50.6907 125.311 50.2853 125.674 49.976C126.047 49.656 126.484 49.496 126.986 49.496H127.898C128.282 49.496 128.634 49.592 128.954 49.784C129.284 49.976 129.546 50.2373 129.738 50.568C129.93 50.888 130.026 51.24 130.026 51.624V55.064C130.026 55.8427 129.818 56.5147 129.402 57.08C128.986 57.656 128.42 58.0613 127.706 58.296L125.962 58.888L125.69 57.992L127.514 57.384C128.026 57.2133 128.41 56.9307 128.666 56.536C128.932 56.1413 129.066 55.704 129.066 55.224V54.856ZM129.066 51.624C129.066 51.3147 128.959 51.0587 128.746 50.856C128.532 50.6427 128.271 50.536 127.962 50.536H126.89C126.634 50.536 126.415 50.616 126.234 50.776C126.063 50.9253 125.956 51.1387 125.914 51.416L125.674 52.712C125.663 52.7547 125.658 52.8133 125.658 52.888C125.658 53.1547 125.754 53.384 125.946 53.576C126.138 53.768 126.372 53.864 126.65 53.864H129.066V51.624ZM131.344 55C131.194 55 131.12 54.9253 131.12 54.776V54.104C131.12 54.04 131.141 53.9867 131.184 53.944C131.226 53.8907 131.28 53.864 131.344 53.864H132.304C132.698 53.864 133.002 53.768 133.216 53.576C133.429 53.384 133.568 53.1227 133.632 52.792L134.128 50.312L135.072 50.488L134.672 52.536C134.65 52.6427 134.64 52.7227 134.64 52.776C134.64 53.0853 134.752 53.3467 134.976 53.56C135.2 53.7627 135.488 53.864 135.84 53.864H136.768C136.832 53.864 136.885 53.8907 136.928 53.944C136.97 53.9867 136.992 54.04 136.992 54.104V54.776C136.992 54.9253 136.917 55 136.768 55H135.824C135.418 55 135.061 54.9093 134.752 54.728C134.453 54.5467 134.24 54.2747 134.112 53.912C133.962 54.2427 133.717 54.5093 133.376 54.712C133.034 54.904 132.672 55 132.288 55H131.344ZM133.424 56.92H134.672V58.184H133.424V56.92ZM136.766 55C136.616 55 136.542 54.9253 136.542 54.776V54.088C136.542 54.024 136.568 53.9707 136.622 53.928C136.664 53.8853 136.712 53.864 136.766 53.864H137.39C137.742 53.864 138.035 53.7413 138.27 53.496C138.515 53.2507 138.638 52.952 138.638 52.6V50.232H139.598V52.616C139.598 52.9573 139.72 53.2507 139.966 53.496C140.222 53.7413 140.52 53.864 140.862 53.864H141.038C141.784 53.864 142.232 53.5067 142.382 52.792L142.862 50.312L143.822 50.488L143.422 52.52C143.411 52.5733 143.406 52.6533 143.406 52.76C143.406 53.08 143.512 53.3467 143.726 53.56C143.95 53.7627 144.238 53.864 144.59 53.864H145.998V49.768H146.958V53.688C146.958 54.0933 146.84 54.4133 146.606 54.648C146.371 54.8827 146.051 55 145.646 55H144.59C143.726 55 143.15 54.6373 142.862 53.912C142.702 54.2533 142.451 54.52 142.11 54.712C141.779 54.904 141.416 55 141.022 55C140.638 55 140.28 54.9093 139.95 54.728C139.63 54.536 139.352 54.264 139.118 53.912C138.904 54.264 138.632 54.536 138.302 54.728C137.971 54.9093 137.608 55 137.214 55H136.766ZM142.414 45.256H143.662V46.52H142.414V45.256ZM141.374 47.112H142.622V48.36H141.374V47.112ZM143.454 47.112H144.702V48.36H143.454V47.112ZM149.232 44.552H150.208V55H149.232V44.552ZM154.209 55C153.761 55 153.371 54.84 153.041 54.52C152.721 54.1893 152.561 53.8 152.561 53.352V51.736H153.393V53.128C153.393 53.3413 153.451 53.5173 153.569 53.656C153.686 53.7947 153.857 53.864 154.081 53.864H156.561C157.009 53.864 157.35 53.7307 157.585 53.464C157.83 53.1973 157.953 52.872 157.953 52.488C157.953 52.1787 157.883 51.9013 157.745 51.656L156.001 48.536L156.817 48.04L158.577 51.16C158.843 51.6293 158.977 52.1093 158.977 52.6C158.977 53.0373 158.87 53.4427 158.657 53.816C158.454 54.1787 158.161 54.4667 157.777 54.68C157.403 54.8933 156.977 55 156.497 55H154.209Z" fill="#898989"/>
</g>
<defs>
<clipPath id="clip0_1_16">
<rect width="241" height="71" fill="white"/>
</clipPath>
</defs>
</svg>
